<svg xmlns="http://www.w3.org/2000/svg" xmlns:svg="http://www.w3.org/2000/svg" id="svg3355" width="189.106" height="189.107" version="1.1" viewBox="0 0 189.106 189.107" xml:space="preserve"><metadata id="metadata3361"/><defs id="defs3359"><clipPath id="clipPath3369" clipPathUnits="userSpaceOnUse"><path id="path3371" d="M 0,768 1366,768 1366,0 0,0 0,768 Z"/></clipPath></defs><g id="g3363" transform="matrix(1.25,0,0,-1.25,-468.03375,573.92875)"><g id="g3365"><g id="g3367" clip-path="url(#clipPath3369)"><g id="g3373" transform="translate(395.813,350.585)"><path id="path3375" d="m 0,0 6.153,13.984 13.601,4.163 10.115,47.589 24.485,-27.706 23.921,27.249 11.183,-40.1 7.351,1.719 14.983,30.109 10.831,8.308 c -12.137,25.565 -38.186,43.243 -68.367,43.243 -41.776,0 -75.642,-33.867 -75.642,-75.643 0,-12.414 2.99,-24.13 8.291,-34.466 L 0,0 Z" style="fill:#1ba89c;fill-opacity:1;fill-rule:nonzero;stroke:none"/></g><g id="g3377" transform="translate(514.7026,401.7451)"><path id="path3379" d="m 0,0 -15.938,-32.024 -19.815,-4.638 -9.046,32.435 -19.715,-22.457 -19.442,22 -7.513,-35.35 -14.72,-4.507 -6.562,-14.914 -14.192,-1.681 c 13.644,-19.783 36.461,-32.752 62.31,-32.752 41.776,0 75.642,33.867 75.642,75.643 0,8.303 -1.342,16.291 -3.814,23.765 L 0,0 Z" style="fill:#117a71;fill-opacity:1;fill-rule:nonzero;stroke:none"/></g></g><flowRoot style="font-style:normal;font-variant:normal;font-weight:400;font-stretch:normal;font-size:40px;line-height:125%;font-family:'Gill Sans';-inkscape-font-specification:'Gill Sans';letter-spacing:0;word-spacing:0;fill:#000;fill-opacity:1;stroke:none;stroke-width:1px;stroke-linecap:butt;stroke-linejoin:miter;stroke-opacity:1" id="flowRoot4223" transform="matrix(0.8,0,0,-0.8,0,768)" xml:space="preserve"><flowRegion id="flowRegion4225"><rect style="font-style:normal;font-variant:normal;font-weight:400;font-stretch:normal;font-family:'Gill Sans';-inkscape-font-specification:'Gill Sans'" id="rect4227" width="523.259" height="149.907" x="704.278" y="419.77"/></flowRegion><flowPara id="flowPara4229"/></flowRoot></g></g></svg>